<?xml version="1.0" encoding="UTF-8"?>
<svg width="80px" height="50px" viewBox="0 0 80 50" version="1.1" xmlns="http://www.w3.org/2000/svg" xmlns:xlink="http://www.w3.org/1999/xlink">
    <!-- Generator: Sketch 47.1 (45422) - http://www.bohemiancoding.com/sketch -->
    <title>Imported Layers</title>
    <desc>Created with Sketch.</desc>
    <defs></defs>
    <g id="Rev-4" stroke="none" stroke-width="1" fill="none" fill-rule="evenodd">
        <g id="Horizontally-Scrolling" transform="translate(-90.000000, -54.000000)" fill="#EC1C24">
            <g id="Imported-Layers" transform="translate(90.000000, 54.000000)">
                <path d="M3.334,3.173 L76.106,3.173 L76.106,46.736 L3.334,46.736 L3.334,3.173 Z M0.426,49.648 L79.016,49.648 L79.016,0.262 L0.426,0.262 L0.426,49.648 Z" id="Fill-1"></path>
                <path d="M14.139,7.164 C14.441,8.249 14.738,9.333 15.066,10.416 C15.623,12.357 15.723,12.671 16.037,14.624 C16.338,12.628 16.408,12.285 16.863,10.23 C17.078,9.206 17.309,8.178 17.521,7.164 L20.019,7.164 L17.463,17.235 L14.869,17.235 C14.555,16.123 14.254,15.011 13.926,13.911 C13.383,12.057 13.356,11.986 13.057,10.573 C12.799,11.814 12.771,11.914 12.201,13.84 L11.228,17.235 L8.635,17.235 L6.082,7.164 L8.59,7.164 C9.676,11.942 9.789,12.471 10.088,14.654 C10.459,12.656 10.56,12.271 11.086,10.273 L11.916,7.164 L14.139,7.164" id="Fill-2"></path>
                <path d="M24.81,17.521 C21.613,17.521 19.805,15.066 19.805,12.156 C19.805,9.433 21.529,6.85 24.768,6.85 C25.367,6.85 25.994,6.935 26.607,7.15 C29.687,8.22 29.887,11.572 29.887,12.256 C29.887,13.997 29.09,15.566 27.977,16.465 C26.99,17.279 25.85,17.521 24.81,17.521 L24.81,17.521 Z M26.549,9.689 C26.121,9.232 25.465,8.947 24.779,8.947 C23.256,8.947 22.285,10.288 22.285,12.113 C22.285,14.511 23.625,15.395 24.81,15.395 C26.008,15.395 27.293,14.54 27.363,12.428 C27.406,11.373 27.119,10.302 26.549,9.689 L26.549,9.689 Z" id="Fill-3"></path>
                <path d="M30.57,7.164 L35.106,7.164 C36.158,7.18 37.473,7.193 38.398,8.192 C38.871,8.719 39.199,9.519 39.199,10.431 C39.199,12.456 37.816,12.956 37.131,13.212 L39.457,17.235 L36.674,17.235 L34.68,13.641 L33.092,13.641 L33.092,17.235 L30.57,17.235 L30.57,7.164 L30.57,7.164 Z M33.092,9.048 L33.092,11.772 L35.174,11.772 C35.533,11.756 36.689,11.73 36.689,10.388 C36.689,9.104 35.76,9.061 35.23,9.048 L33.092,9.048 L33.092,9.048 Z" id="Fill-4"></path>
                <polyline id="Fill-5" points="40.193 7.15 42.59 7.15 42.59 11.259 46.354 7.15 49.379 7.15 45.815 10.889 49.664 17.221 46.826 17.221 44.127 12.657 42.59 14.268 42.59 17.221 40.193 17.221 40.193 7.15"></polyline>
                <path d="M13.037,26.174 C13.037,26.174 13.203,26.17 13.375,25.335 L15.219,25.332 C15.219,26.131 14.838,26.701 14.223,27.732 C14.424,27.957 14.635,28.203 15.307,28.203 C15.447,28.203 15.592,28.186 15.736,28.186 L15.736,29.785 L13.965,29.785 C13.727,29.785 13.35,29.613 12.836,29.117 C12.381,29.383 11.539,29.885 10.156,29.885 C7.83,29.885 6.701,28.346 6.701,26.773 C6.701,26.402 6.773,26.018 6.918,25.63 C7.434,24.379 8.473,23.906 9.174,23.593 C8.799,22.963 8.516,22.466 8.516,21.867 C8.516,20.624 9.4,19.655 11.098,19.655 C12.695,19.655 13.553,20.682 13.553,21.823 C13.553,23.05 12.566,23.808 11.668,24.178 L13.037,26.174 Z M10.055,25.062 C9.615,25.347 8.887,25.816 8.887,26.686 C8.887,27.242 9.299,28.186 10.387,28.186 C10.926,28.186 11.369,27.943 11.783,27.715 L10.055,25.062 L10.055,25.062 Z M11.754,21.795 C11.754,21.439 11.481,21.182 11.055,21.182 C10.684,21.182 10.342,21.411 10.342,21.78 C10.342,22.081 10.498,22.337 10.824,22.864 C11.312,22.607 11.754,22.28 11.754,21.795 L11.754,21.795 Z" id="Fill-6"></path>
                <path d="M29.398,30.068 C26.203,30.068 24.391,27.617 24.391,24.704 C24.391,21.982 26.119,19.397 29.356,19.397 C29.955,19.397 30.584,19.485 31.197,19.699 C34.277,20.768 34.478,24.121 34.478,24.804 C34.478,26.543 33.682,28.115 32.568,29.012 C31.582,29.828 30.441,30.068 29.398,30.068 L29.398,30.068 Z M31.141,22.238 C30.713,21.78 30.059,21.496 29.371,21.496 C27.846,21.496 26.875,22.836 26.875,24.66 C26.875,27.061 28.215,27.943 29.398,27.943 C30.598,27.943 31.883,27.088 31.953,24.975 C31.996,23.92 31.711,22.851 31.141,22.238 L31.141,22.238 Z" id="Fill-7"></path>
                <path d="M21.07,27.943 C19.9,27.943 18.574,27.061 18.574,24.66 C18.574,22.836 19.531,21.496 21.043,21.496 C21.721,21.496 22.371,21.78 22.791,22.238 C22.92,22.378 23.031,22.544 23.133,22.727 L24.437,20.656 C24.019,20.264 23.502,19.928 22.85,19.699 C22.242,19.485 21.619,19.397 21.031,19.397 C17.826,19.397 16.119,21.982 16.119,24.704 C16.119,27.617 17.91,30.068 21.07,30.068 C22.102,30.068 23.23,29.828 24.205,29.012 C24.281,28.949 24.361,28.879 24.437,28.807 L23.137,26.742 C22.65,27.578 21.842,27.943 21.07,27.943" id="Fill-8"></path>
            </g>
        </g>
    </g>
</svg>